<svg xmlns="http://www.w3.org/2000/svg" xmlns:xlink="http://www.w3.org/1999/xlink" viewBox="0 0 1280 1281"><defs><style>.cls-1,.cls-3{fill:none;}.cls-2{clip-path:url(#clip-path);}.cls-3{stroke:#3fa9f5;stroke-width:0.3px;}.cls-4{opacity:0.5;}.cls-5{fill:url(#Unnamed_Pattern);}</style><clipPath id="clip-path"><rect class="cls-1" width="72" height="72"/></clipPath><pattern id="Unnamed_Pattern" data-name="Unnamed Pattern" width="72" height="72" patternTransform="matrix(1, 0, 0, -1, -1, 19611.52)" patternUnits="userSpaceOnUse" viewBox="0 0 72 72"><rect class="cls-1" width="72" height="72"/><g class="cls-2"><line class="cls-3" x1="6" y1="0.25" x2="6" y2="-72.25"/><line class="cls-3" x1="30" y1="0.25" x2="30" y2="-72.25"/><line class="cls-3" x1="54" y1="0.25" x2="54" y2="-72.25"/><line class="cls-3" x1="18" y1="0.25" x2="18" y2="-72.25"/><line class="cls-3" x1="42" y1="0.25" x2="42" y2="-72.25"/><line class="cls-3" x1="66" y1="0.25" x2="66" y2="-72.25"/><line class="cls-3" x1="71.75" y1="6" x2="144.25" y2="6"/><line class="cls-3" x1="71.75" y1="30" x2="144.25" y2="30"/><line class="cls-3" x1="71.75" y1="54" x2="144.25" y2="54"/><line class="cls-3" x1="71.75" y1="18" x2="144.25" y2="18"/><line class="cls-3" x1="71.75" y1="42" x2="144.25" y2="42"/><line class="cls-3" x1="71.75" y1="66" x2="144.25" y2="66"/><line class="cls-3" x1="6" y1="72.25" x2="6" y2="-0.25"/><line class="cls-3" x1="30" y1="72.25" x2="30" y2="-0.25"/><line class="cls-3" x1="54" y1="72.25" x2="54" y2="-0.25"/><line class="cls-3" x1="-0.25" y1="6" x2="72.25" y2="6"/><line class="cls-3" x1="-0.25" y1="30" x2="72.25" y2="30"/><line class="cls-3" x1="-0.25" y1="54" x2="72.25" y2="54"/><line class="cls-3" x1="-0.25" y1="18" x2="72.25" y2="18"/><line class="cls-3" x1="-0.25" y1="42" x2="72.25" y2="42"/><line class="cls-3" x1="-0.25" y1="66" x2="72.25" y2="66"/><line class="cls-3" x1="18" y1="72.25" x2="18" y2="-0.25"/><line class="cls-3" x1="42" y1="72.25" x2="42" y2="-0.25"/><line class="cls-3" x1="66" y1="72.25" x2="66" y2="-0.25"/><line class="cls-3" x1="-72.25" y1="6" x2="0.25" y2="6"/><line class="cls-3" x1="-72.25" y1="30" x2="0.25" y2="30"/><line class="cls-3" x1="-72.25" y1="54" x2="0.25" y2="54"/><line class="cls-3" x1="-72.25" y1="18" x2="0.25" y2="18"/><line class="cls-3" x1="-72.25" y1="42" x2="0.25" y2="42"/><line class="cls-3" x1="-72.25" y1="66" x2="0.25" y2="66"/><line class="cls-3" x1="6" y1="144.25" x2="6" y2="71.75"/><line class="cls-3" x1="30" y1="144.25" x2="30" y2="71.75"/><line class="cls-3" x1="54" y1="144.25" x2="54" y2="71.75"/><line class="cls-3" x1="18" y1="144.25" x2="18" y2="71.75"/><line class="cls-3" x1="42" y1="144.25" x2="42" y2="71.75"/><line class="cls-3" x1="66" y1="144.25" x2="66" y2="71.75"/></g></pattern></defs><title>Asset 1</title><g id="Layer_2" data-name="Layer 2"><g id="Layer_1-2" data-name="Layer 1"><g class="cls-4"><rect class="cls-5" width="1280" height="1281"/></g></g></g></svg>