<svg xmlns="http://www.w3.org/2000/svg" viewBox="0 0 529.02 34.3"><defs><style>.cls-1{fill:#fff;}.cls-2{fill:none;stroke:#fff;stroke-width:1.06px;}</style></defs><title>Asset 2</title><g id="Layer_2" data-name="Layer 2"><g id="Layer_1-2" data-name="Layer 1"><path class="cls-1" d="M31.22,11.87c.12.74-.49.74-.82.66a5.53,5.53,0,0,0-1.69-.37c-.62,0-1.65,0-2.76,0-.78,0-2.84,0-4,.08v.54c0,2.22-.08,4.57-.08,7.16,0,2.26,0,4,0,5.27a15.37,15.37,0,0,0,.41,3.29,2.58,2.58,0,0,1-.66,2.55c-.7.95-1.31,1.07-1.93.86-.33-.12-.7-.86-1.15-1.6a16.31,16.31,0,0,0-2.8-3.29,17.58,17.58,0,0,0-5.47-3.79c-.46.33-.87.66-1.36,1a50.78,50.78,0,0,1-5.11,3.25A17.12,17.12,0,0,1,1.26,29c-.7.29-1-.33-.45-.62l1.65-1a60.15,60.15,0,0,0,5.3-3.95,43.44,43.44,0,0,0,5.85-6c1.48-1.81,2.8-3.83,3.13-4.2s.2-.87-.5-.87-1.69,0-3,.13c-1.16.08-2.47.16-3.34.29a7.45,7.45,0,0,1-3.17.16,4,4,0,0,1-2-1.44c-.5-.62-.74-1.23-.41-1.48s1.11.08,1.64.41A5.61,5.61,0,0,0,8.5,11c1.24,0,3.63-.09,5.6-.17l5.35-.12V9.28a31.55,31.55,0,0,0-.08-3.21,2.77,2.77,0,0,0-1-2.06c-.53-.41-.78-.66-.74-1s.37-.61.95-.53A8.54,8.54,0,0,1,20.48,3a2.68,2.68,0,0,1,1.61,1.24c.37.65.2,1.93.08,3.08C22.09,8,22,9.24,22,10.6c1-.09,1.94-.13,2.72-.21A27.61,27.61,0,0,0,28,9.85a3.47,3.47,0,0,1,2.18.54,1.77,1.77,0,0,1,1.07,1.48M19.78,24.22c0-1.94-.08-3.09-.08-4.61s0-3.09-.13-4.61c0-.08,0-.17,0-.25-.16-.33-.53-.25-.86.08s-.78.95-1.77,2.19a37.48,37.48,0,0,1-3.58,3.86c-.74.66-1.4,1.16-2.14,1.73a33,33,0,0,1,3.33,1.61c1.48.78,3.13,1.93,4.24,2.67.58.37,1,.29,1-.33s0-1.64,0-2.34"/><path class="cls-2" d="M31.22,11.87c.12.74-.49.74-.82.66a5.53,5.53,0,0,0-1.69-.37c-.62,0-1.65,0-2.76,0-.78,0-2.84,0-4,.08v.54c0,2.22-.08,4.57-.08,7.16,0,2.26,0,4,0,5.27a15.37,15.37,0,0,0,.41,3.29,2.58,2.58,0,0,1-.66,2.55c-.7.95-1.31,1.07-1.93.86-.33-.12-.7-.86-1.15-1.6a16.31,16.31,0,0,0-2.8-3.29,17.58,17.58,0,0,0-5.47-3.79c-.46.33-.87.66-1.36,1a50.78,50.78,0,0,1-5.11,3.25A17.12,17.12,0,0,1,1.26,29c-.7.29-1-.33-.45-.62l1.65-1a60.15,60.15,0,0,0,5.3-3.95,43.44,43.44,0,0,0,5.85-6c1.48-1.81,2.8-3.83,3.13-4.2s.2-.87-.5-.87-1.69,0-3,.13c-1.16.08-2.47.16-3.34.29a7.45,7.45,0,0,1-3.17.16,4,4,0,0,1-2-1.44c-.5-.62-.74-1.23-.41-1.48s1.11.08,1.64.41A5.61,5.61,0,0,0,8.5,11c1.24,0,3.63-.09,5.6-.17l5.35-.12V9.28a31.55,31.55,0,0,0-.08-3.21,2.77,2.77,0,0,0-1-2.06c-.53-.41-.78-.66-.74-1s.37-.61.95-.53A8.54,8.54,0,0,1,20.48,3a2.68,2.68,0,0,1,1.61,1.24c.37.65.2,1.93.08,3.08C22.09,8,22,9.24,22,10.6c1-.09,1.94-.13,2.72-.21A27.61,27.61,0,0,0,28,9.85a3.47,3.47,0,0,1,2.18.54A1.77,1.77,0,0,1,31.22,11.87ZM19.78,24.22c0-1.94-.08-3.09-.08-4.61s0-3.09-.13-4.61c0-.08,0-.17,0-.25-.16-.33-.53-.25-.86.08s-.78.95-1.77,2.19a37.48,37.48,0,0,1-3.58,3.86c-.74.66-1.4,1.16-2.14,1.73a33,33,0,0,1,3.33,1.61c1.48.78,3.13,1.93,4.24,2.67.58.37,1,.29,1-.33S19.82,24.92,19.78,24.22Z"/><path class="cls-1" d="M45.58,26.23c-.91.25-1.48.25-1.61,0s.46-.65,1.11-1a42.68,42.68,0,0,0,5.4-3c1.56-1,2.88-1.85,4-2.76A26.11,26.11,0,0,0,58.42,16a37.16,37.16,0,0,0,2.76-3.46c.61-.87.9-1.24.61-1.44s-.94-.13-1.89,0-2.39.33-3.42.53a21.62,21.62,0,0,1-3,.54,4.25,4.25,0,0,1-3-.82c-.9-.66-1.23-1.61-.7-2,.75-.53,2.1.41,3.21.7a11.64,11.64,0,0,0,3.67.08,28.47,28.47,0,0,0,4.28-.62,9,9,0,0,0,2.59-1.11,2,2,0,0,1,2.1.29A7.45,7.45,0,0,1,67.18,10a1,1,0,0,1,0,1.48c-.37.41-1.23.45-1.93.58s-1,.74-1.48,1.27c-.95,1.11-1.94,2.1-3.58,3.79a21.39,21.39,0,0,1-2.47,2.18,5.72,5.72,0,0,1,1.36.86c.7.58.7,1.24.7,2.6s.08,3.16.16,4.44.33,2.47.37,3.46-.45,2.34-1.56,2.3-1.24-.94-1.2-2,.17-3.21.17-4.85a25.11,25.11,0,0,0,0-3.91,3.56,3.56,0,0,0-1-2.06c-.66.5-1.32.95-1.94,1.36-1.64,1.07-2.92,1.69-5.06,2.84a23.46,23.46,0,0,1-4.07,1.93m14.81-21c.29,1.12,0,2-.57,2.23a1.57,1.57,0,0,1-1.77-.74,8.16,8.16,0,0,1-.74-1.77,6.08,6.08,0,0,0-1.53-2.23c-.49-.37-.78-.74-.65-1s.7-.21,1.15-.09a6.52,6.52,0,0,1,2.38,1.2A4.17,4.17,0,0,1,60.39,5.2M72.25,22.28c.61,1.07.41,1.94-.37,2.43a1.65,1.65,0,0,1-2.19-.86,14.36,14.36,0,0,0-2-2.76,9.63,9.63,0,0,0-4.28-2.55c-.58-.21-1.11-.41-.91-.74s.54-.33,1-.25a22.05,22.05,0,0,1,2.14.58,15.34,15.34,0,0,1,3.87,1.64,6.78,6.78,0,0,1,2.72,2.51"/><path class="cls-2" d="M45.58,26.23c-.91.25-1.48.25-1.61,0s.46-.65,1.11-1a42.68,42.68,0,0,0,5.4-3c1.56-1,2.88-1.85,4-2.76A26.11,26.11,0,0,0,58.42,16a37.16,37.16,0,0,0,2.76-3.46c.61-.87.9-1.24.61-1.44s-.94-.13-1.89,0-2.39.33-3.42.53a21.62,21.62,0,0,1-3,.54,4.25,4.25,0,0,1-3-.82c-.9-.66-1.23-1.61-.7-2,.75-.53,2.1.41,3.21.7a11.64,11.64,0,0,0,3.67.08,28.47,28.47,0,0,0,4.28-.62,9,9,0,0,0,2.59-1.11,2,2,0,0,1,2.1.29A7.45,7.45,0,0,1,67.18,10a1,1,0,0,1,0,1.48c-.37.41-1.23.45-1.93.58s-1,.74-1.48,1.27c-.95,1.11-1.94,2.1-3.58,3.79a21.39,21.39,0,0,1-2.47,2.18,5.72,5.72,0,0,1,1.36.86c.7.58.7,1.24.7,2.6s.08,3.16.16,4.44.33,2.47.37,3.46-.45,2.34-1.56,2.3-1.24-.94-1.2-2,.17-3.21.17-4.85a25.11,25.11,0,0,0,0-3.91,3.56,3.56,0,0,0-1-2.06c-.66.5-1.32.95-1.94,1.36-1.64,1.07-2.92,1.69-5.06,2.84A23.46,23.46,0,0,1,45.58,26.23Zm14.81-21c.29,1.12,0,2-.57,2.23a1.57,1.57,0,0,1-1.77-.74,8.16,8.16,0,0,1-.74-1.77,6.08,6.08,0,0,0-1.53-2.23c-.49-.37-.78-.74-.65-1s.7-.21,1.15-.09a6.52,6.52,0,0,1,2.38,1.2A4.17,4.17,0,0,1,60.39,5.2ZM72.25,22.28c.61,1.07.41,1.94-.37,2.43a1.65,1.65,0,0,1-2.19-.86,14.36,14.36,0,0,0-2-2.76,9.63,9.63,0,0,0-4.28-2.55c-.58-.21-1.11-.41-.91-.74s.54-.33,1-.25a22.05,22.05,0,0,1,2.14.58,15.34,15.34,0,0,1,3.87,1.64A6.78,6.78,0,0,1,72.25,22.28Z"/><path class="cls-1" d="M85.45,29.81c-.08-.24.45-.57.86-.78a32.89,32.89,0,0,0,4.24-2.3,28.26,28.26,0,0,0,4.32-3.38A44,44,0,0,0,99,19.16a46.44,46.44,0,0,0,4-5.48,15.73,15.73,0,0,0,2.06-4c.25-.95-.37-1.4-1.56-1-.78.25-1.28.33-2.72.66a18.62,18.62,0,0,1-3.74.58,5.79,5.79,0,0,1-3.34-1C92.78,8,92.57,7.06,93,6.6a1.35,1.35,0,0,1,1.65-.12,7.11,7.11,0,0,0,2,.86,13.77,13.77,0,0,0,5-.08,22,22,0,0,0,3.7-.94c.58-.21,1.32-.7,2.14-.25a3.06,3.06,0,0,1,1.56,2.67,2.71,2.71,0,0,1-1.19,2.8,12.64,12.64,0,0,0-2.22,2.35c-.83,1.15-1.94,2.67-3.46,4.52a15.81,15.81,0,0,1,4.49,1.9,13.94,13.94,0,0,1,3.74,3.29c.82,1,1.56,3.17.37,3.91s-2.51-.58-3.13-1.69a27.93,27.93,0,0,0-2.47-3.95,8.94,8.94,0,0,0-3.62-2.8.33.33,0,0,0-.08.17A49,49,0,0,1,96.4,24.3a28.11,28.11,0,0,1-5,3.5,27.84,27.84,0,0,1-4.74,2.14c-.65.2-1.15.16-1.23-.13"/><path class="cls-2" d="M85.45,29.81c-.08-.24.45-.57.86-.78a32.89,32.89,0,0,0,4.24-2.3,28.26,28.26,0,0,0,4.32-3.38A44,44,0,0,0,99,19.16a46.44,46.44,0,0,0,4-5.48,15.73,15.73,0,0,0,2.06-4c.25-.95-.37-1.4-1.56-1-.78.25-1.28.33-2.72.66a18.62,18.62,0,0,1-3.74.58,5.79,5.79,0,0,1-3.34-1C92.78,8,92.57,7.06,93,6.6a1.35,1.35,0,0,1,1.65-.12,7.11,7.11,0,0,0,2,.86,13.77,13.77,0,0,0,5-.08,22,22,0,0,0,3.7-.94c.58-.21,1.32-.7,2.14-.25a3.06,3.06,0,0,1,1.56,2.67,2.71,2.71,0,0,1-1.19,2.8,12.64,12.64,0,0,0-2.22,2.35c-.83,1.15-1.94,2.67-3.46,4.52a15.81,15.81,0,0,1,4.49,1.9,13.94,13.94,0,0,1,3.74,3.29c.82,1,1.56,3.17.37,3.91s-2.51-.58-3.13-1.69a27.93,27.93,0,0,0-2.47-3.95,8.94,8.94,0,0,0-3.62-2.8.33.33,0,0,0-.08.17A49,49,0,0,1,96.4,24.3a28.11,28.11,0,0,1-5,3.5,27.84,27.84,0,0,1-4.74,2.14C86,30.14,85.53,30.1,85.45,29.81Z"/><path class="cls-1" d="M140.26,15.62c0,.74,0,4,0,5.39a42.41,42.41,0,0,0,.21,5.18c.2,1.36.49,2.51.74,3.62s.12,2.68-.91,2.76a2.6,2.6,0,0,1-2.38-1.69,5.7,5.7,0,0,1-.29-3.45c.2-1.11.37-2.64.53-4.45s.25-4.4.29-6.62.21-4.16.29-5.93a21.63,21.63,0,0,0-.16-4.11,3.51,3.51,0,0,0-1.2-2.43c-.62-.54-.94-1.24-.62-1.65s1.07-.37,1.69-.2a3.27,3.27,0,0,1,2,1.31,3.42,3.42,0,0,1,.16,2.27c-.12.65-.2,1.77-.29,3s-.08,2.76,0,4.36c0,.54.5.54.87.58a11.06,11.06,0,0,1,4.52,1,10.94,10.94,0,0,1,4,2.84c1.19,1.27,1.93,3.45.32,4.07s-2.46-1.28-3.37-2.8a8.36,8.36,0,0,0-2.84-3.17,6.39,6.39,0,0,0-2.76-1c-.57,0-.74.33-.74,1.12"/><path class="cls-2" d="M140.26,15.62c0,.74,0,4,0,5.39a42.41,42.41,0,0,0,.21,5.18c.2,1.36.49,2.51.74,3.62s.12,2.68-.91,2.76a2.6,2.6,0,0,1-2.38-1.69,5.7,5.7,0,0,1-.29-3.45c.2-1.11.37-2.64.53-4.45s.25-4.4.29-6.62.21-4.16.29-5.93a21.63,21.63,0,0,0-.16-4.11,3.51,3.51,0,0,0-1.2-2.43c-.62-.54-.94-1.24-.62-1.65s1.07-.37,1.69-.2a3.27,3.27,0,0,1,2,1.31,3.42,3.42,0,0,1,.16,2.27c-.12.65-.2,1.77-.29,3s-.08,2.76,0,4.36c0,.54.5.54.87.58a11.06,11.06,0,0,1,4.52,1,10.94,10.94,0,0,1,4,2.84c1.19,1.27,1.93,3.45.32,4.07s-2.46-1.28-3.37-2.8a8.36,8.36,0,0,0-2.84-3.17,6.39,6.39,0,0,0-2.76-1C140.43,14.46,140.26,14.83,140.26,15.62Z"/><path class="cls-1" d="M178.9,3.52h7.37v.86c-1.36.08-2.14.41-2.43.87a3.51,3.51,0,0,0-.25,1.56V26.07c0,1,.21,1.65.7,1.89a4.16,4.16,0,0,0,1.85.29H188c2.79,0,4.36-2.14,4.6-6.42h.91v7.45H178.9v-.82c1.23-.09,1.93-.33,2.18-.83a3.15,3.15,0,0,0,.29-1.56V6.81c0-1.07-.25-1.73-.7-2a4.94,4.94,0,0,0-1.77-.41Z"/><path class="cls-2" d="M178.9,3.52h7.37v.86c-1.36.08-2.14.41-2.43.87a3.51,3.51,0,0,0-.25,1.56V26.07c0,1,.21,1.65.7,1.89a4.16,4.16,0,0,0,1.85.29H188c2.79,0,4.36-2.14,4.6-6.42h.91v7.45H178.9v-.82c1.23-.09,1.93-.33,2.18-.83a3.15,3.15,0,0,0,.29-1.56V6.81c0-1.07-.25-1.73-.7-2a4.94,4.94,0,0,0-1.77-.41Z"/><path class="cls-1" d="M237,8.87c.54.45.74.86.66,1.19s-.49.7-1.07,1.07-1.11,1.52-1.6,2.59a33.8,33.8,0,0,1-3.46,5.56,32.3,32.3,0,0,1-4.44,5.1,26,26,0,0,1-6,4.2,40.7,40.7,0,0,1-6.3,2.8c-.49.16-.86,0-.95-.25s.29-.41.62-.53a22.43,22.43,0,0,0,5-2.47,41.67,41.67,0,0,0,5-3.95A26.7,26.7,0,0,0,229,19a30.27,30.27,0,0,0,2.8-4.9,17.17,17.17,0,0,0,1.07-3.33,1.24,1.24,0,0,0-.13-1,3.28,3.28,0,0,0-.9-.08h-3.54c-.58,0-1.44,0-2,0-.37.78-.86,1.6-1.31,2.35a20.57,20.57,0,0,1-4.24,4.85,17,17,0,0,1-5.06,3.05c-.33.12-.75.12-.87-.13s.25-.53.54-.7A19.27,19.27,0,0,0,219.6,16,24.61,24.61,0,0,0,223,11.58a19.81,19.81,0,0,0,1.77-3.74,4.55,4.55,0,0,0,.37-2.18,2.27,2.27,0,0,0-.82-1.2c-.37-.33-.62-.9-.33-1.19s1-.16,1.77.08a5.73,5.73,0,0,1,2,1.15c.46.5.33,1.24,0,2.19-.08.33-.37.82-.65,1.48.28,0,.7.12,1.07.16a16.8,16.8,0,0,0,2.84,0,4.74,4.74,0,0,0,2.22-.78,2,2,0,0,1,2,0A5.61,5.61,0,0,1,237,8.87"/><path class="cls-2" d="M237,8.87c.54.45.74.86.66,1.19s-.49.7-1.07,1.07-1.11,1.52-1.6,2.59a33.8,33.8,0,0,1-3.46,5.56,32.3,32.3,0,0,1-4.44,5.1,26,26,0,0,1-6,4.2,40.7,40.7,0,0,1-6.3,2.8c-.49.16-.86,0-.95-.25s.29-.41.62-.53a22.43,22.43,0,0,0,5-2.47,41.67,41.67,0,0,0,5-3.95A26.7,26.7,0,0,0,229,19a30.27,30.27,0,0,0,2.8-4.9,17.17,17.17,0,0,0,1.07-3.33,1.24,1.24,0,0,0-.13-1,3.28,3.28,0,0,0-.9-.08h-3.54c-.58,0-1.44,0-2,0-.37.78-.86,1.6-1.31,2.35a20.57,20.57,0,0,1-4.24,4.85,17,17,0,0,1-5.06,3.05c-.33.12-.75.12-.87-.13s.25-.53.54-.7A19.27,19.27,0,0,0,219.6,16,24.61,24.61,0,0,0,223,11.58a19.81,19.81,0,0,0,1.77-3.74,4.55,4.55,0,0,0,.37-2.18,2.27,2.27,0,0,0-.82-1.2c-.37-.33-.62-.9-.33-1.19s1-.16,1.77.08a5.73,5.73,0,0,1,2,1.15c.46.5.33,1.24,0,2.19-.08.33-.37.82-.65,1.48.28,0,.7.12,1.07.16a16.8,16.8,0,0,0,2.84,0,4.74,4.74,0,0,0,2.22-.78,2,2,0,0,1,2,0A5.61,5.61,0,0,1,237,8.87Z"/><path class="cls-1" d="M259.47,31.34a29.45,29.45,0,0,0,3.74-1.53,17.34,17.34,0,0,0,5.68-4.11,14.79,14.79,0,0,0,3.46-6.3,27.82,27.82,0,0,0,.86-7.12,48.61,48.61,0,0,0-.28-5.92,2.74,2.74,0,0,0-1.12-2.18c-.57-.5-1-.95-.61-1.45s1-.53,2.42,0a4.66,4.66,0,0,1,1.69,1,1.69,1.69,0,0,1,.78,1.57,8.86,8.86,0,0,0-.16,1.52c0,.94.12,2.76.12,5.27A21.1,21.1,0,0,1,274.78,20a16.62,16.62,0,0,1-3.67,5.88,19.61,19.61,0,0,1-5.1,3.87A28.16,28.16,0,0,1,259.76,32c-.62.17-1,.09-1.11-.16s.37-.33.82-.49m6.58-23.17a40.66,40.66,0,0,0,0,4.57c0,2.3.13,4.65.21,5.8a4.12,4.12,0,0,1-.7,2.63.9.9,0,0,1-1.44.21c-.33-.37-.5-.91-.41-2.35s.12-3.66.2-6,0-3.45,0-4.77A2.3,2.3,0,0,0,263,6.07c-.54-.41-1.07-.78-.91-1.24s.62-.45,1.61-.28a4.07,4.07,0,0,1,2.43,1.35c.57.66.08,1.49-.09,2.27"/><path class="cls-2" d="M259.47,31.34a29.45,29.45,0,0,0,3.74-1.53,17.34,17.34,0,0,0,5.68-4.11,14.79,14.79,0,0,0,3.46-6.3,27.82,27.82,0,0,0,.86-7.12,48.61,48.61,0,0,0-.28-5.92,2.74,2.74,0,0,0-1.12-2.18c-.57-.5-1-.95-.61-1.45s1-.53,2.42,0a4.66,4.66,0,0,1,1.69,1,1.69,1.69,0,0,1,.78,1.57,8.86,8.86,0,0,0-.16,1.52c0,.94.12,2.76.12,5.27A21.1,21.1,0,0,1,274.78,20a16.62,16.62,0,0,1-3.67,5.88,19.61,19.61,0,0,1-5.1,3.87A28.16,28.16,0,0,1,259.76,32c-.62.17-1,.09-1.11-.16S259,31.5,259.47,31.34Zm6.58-23.17a40.66,40.66,0,0,0,0,4.57c0,2.3.13,4.65.21,5.8a4.12,4.12,0,0,1-.7,2.63.9.9,0,0,1-1.44.21c-.33-.37-.5-.91-.41-2.35s.12-3.66.2-6,0-3.45,0-4.77A2.3,2.3,0,0,0,263,6.07c-.54-.41-1.07-.78-.91-1.24s.62-.45,1.61-.28a4.07,4.07,0,0,1,2.43,1.35C266.71,6.56,266.22,7.39,266.05,8.17Z"/><path class="cls-1" d="M296.09,21.38c.37-.41,1.07-.21,1.56.08a5.51,5.51,0,0,0,2,.82,25.32,25.32,0,0,0,4.36.33c1.77,0,3.79-.2,5.6-.37s3.74-.33,5.51-.45,3.58-.37,5-.62a5.92,5.92,0,0,1,3.87.45c1,.62,1.52,1.77.78,2.23s-2.47,0-4.11-.13a56.36,56.36,0,0,0-7-.12c-2.55.08-4.4.29-6.62.49s-3.87.42-5.93.46-3.25-.25-4.2-1.07-1.11-1.77-.78-2.1m5-9.51c-.78-.62-1.19-1.48-.78-1.81.57-.45,1.23.25,1.85.41a8.65,8.65,0,0,0,2.68.33,36.63,36.63,0,0,0,3.7,0c1.15,0,2.76,0,3.91,0a23.68,23.68,0,0,0,4.11-.33,4.32,4.32,0,0,1,3.3.16c.53.33,1.44,1.2.94,1.69s-1.27.29-2.42.21-2.76-.13-4.82-.21-4.12.08-5.76.21a31.39,31.39,0,0,1-3.75.41,4.65,4.65,0,0,1-3-1"/><path class="cls-2" d="M296.09,21.38c.37-.41,1.07-.21,1.56.08a5.51,5.51,0,0,0,2,.82,25.32,25.32,0,0,0,4.36.33c1.77,0,3.79-.2,5.6-.37s3.74-.33,5.51-.45,3.58-.37,5-.62a5.92,5.92,0,0,1,3.87.45c1,.62,1.52,1.77.78,2.23s-2.47,0-4.11-.13a56.36,56.36,0,0,0-7-.12c-2.55.08-4.4.29-6.62.49s-3.87.42-5.93.46-3.25-.25-4.2-1.07S295.76,21.71,296.09,21.38Zm5-9.51c-.78-.62-1.19-1.48-.78-1.81.57-.45,1.23.25,1.85.41a8.65,8.65,0,0,0,2.68.33,36.63,36.63,0,0,0,3.7,0c1.15,0,2.76,0,3.91,0a23.68,23.68,0,0,0,4.11-.33,4.32,4.32,0,0,1,3.3.16c.53.33,1.44,1.2.94,1.69s-1.27.29-2.42.21-2.76-.13-4.82-.21-4.12.08-5.76.21a31.39,31.39,0,0,1-3.75.41A4.65,4.65,0,0,1,301.11,11.87Z"/><path class="cls-1" d="M343.86,31.54a11.82,11.82,0,0,0,2.68-.74,17.08,17.08,0,0,0,5-2.67A25.69,25.69,0,0,0,355.35,24a20,20,0,0,0,2.88-4.94,26,26,0,0,0,1.19-4.4,5.24,5.24,0,0,0-.45-3.25c-.46-.74-.79-1.44-.41-1.77.61-.54,1.93.25,2.51.74a4.59,4.59,0,0,1,1.39,1.73,2.29,2.29,0,0,1-.28,2.14c-.29.57-.87,2.8-1.81,4.85A26.56,26.56,0,0,1,357,24.59a22.11,22.11,0,0,1-4.24,4.07,17.78,17.78,0,0,1-4.52,2.64,11.39,11.39,0,0,1-4.2,1c-.45,0-.87,0-.87-.32s.21-.33.7-.46m.33-16.5c-.29-.29-.7-.78-.49-1,.41-.45,1.15-.08,1.85.46a6,6,0,0,1,1.94,2.79c.37,1.11,0,1.81-.62,2a1.37,1.37,0,0,1-1.4-.7,7.69,7.69,0,0,1-.45-1.85,3.29,3.29,0,0,0-.83-1.69M350,12.86a3.09,3.09,0,0,0-.62-1.2c-.29-.28-.74-.69-.45-.94s1,.08,1.48.41a5.44,5.44,0,0,1,1.85,2.35c.33.7.41,2-.33,2.3a1.1,1.1,0,0,1-1.6-.95c-.13-.7-.21-1.48-.33-2"/><path class="cls-2" d="M343.86,31.54a11.82,11.82,0,0,0,2.68-.74,17.08,17.08,0,0,0,5-2.67A25.69,25.69,0,0,0,355.35,24a20,20,0,0,0,2.88-4.94,26,26,0,0,0,1.19-4.4,5.24,5.24,0,0,0-.45-3.25c-.46-.74-.79-1.44-.41-1.77.61-.54,1.93.25,2.51.74a4.59,4.59,0,0,1,1.39,1.73,2.29,2.29,0,0,1-.28,2.14c-.29.57-.87,2.8-1.81,4.85A26.56,26.56,0,0,1,357,24.59a22.11,22.11,0,0,1-4.24,4.07,17.78,17.78,0,0,1-4.52,2.64,11.39,11.39,0,0,1-4.2,1c-.45,0-.87,0-.87-.32S343.37,31.67,343.86,31.54Zm.33-16.5c-.29-.29-.7-.78-.49-1,.41-.45,1.15-.08,1.85.46a6,6,0,0,1,1.94,2.79c.37,1.11,0,1.81-.62,2a1.37,1.37,0,0,1-1.4-.7,7.69,7.69,0,0,1-.45-1.85A3.29,3.29,0,0,0,344.19,15ZM350,12.86a3.09,3.09,0,0,0-.62-1.2c-.29-.28-.74-.69-.45-.94s1,.08,1.48.41a5.44,5.44,0,0,1,1.85,2.35c.33.7.41,2-.33,2.3a1.1,1.1,0,0,1-1.6-.95C350.24,14.13,350.16,13.35,350,12.86Z"/><path class="cls-1" d="M406.54,8.87c.53.45.74.86.65,1.19s-.49.7-1.07,1.07-1.11,1.52-1.6,2.59a33.8,33.8,0,0,1-3.46,5.56,31.79,31.79,0,0,1-4.44,5.1,25.74,25.74,0,0,1-6,4.2,40.29,40.29,0,0,1-6.3,2.8c-.49.16-.86,0-.94-.25s.28-.41.61-.53a22.43,22.43,0,0,0,5-2.47,41.67,41.67,0,0,0,5-3.95A26.7,26.7,0,0,0,398.51,19a30.27,30.27,0,0,0,2.8-4.9,16.44,16.44,0,0,0,1.07-3.33,1.29,1.29,0,0,0-.12-1,3.36,3.36,0,0,0-.91-.08h-3.54c-.58,0-1.44,0-2,0-.37.78-.86,1.6-1.31,2.35a20.35,20.35,0,0,1-4.24,4.85,17,17,0,0,1-5.06,3.05c-.33.12-.74.12-.87-.13s.25-.53.54-.7A19.27,19.27,0,0,0,389.13,16a24.61,24.61,0,0,0,3.41-4.41,19.21,19.21,0,0,0,1.77-3.74,4.55,4.55,0,0,0,.37-2.18,2.27,2.27,0,0,0-.82-1.2c-.37-.33-.62-.9-.33-1.19s1-.16,1.77.08a5.88,5.88,0,0,1,2,1.15c.45.5.33,1.24,0,2.19-.09.33-.37.82-.66,1.48.29,0,.7.12,1.07.16a16.8,16.8,0,0,0,2.84,0,4.74,4.74,0,0,0,2.22-.78,2,2,0,0,1,2,0,5.77,5.77,0,0,1,1.82,1.28"/><path class="cls-2" d="M406.54,8.87c.53.45.74.86.65,1.19s-.49.7-1.07,1.07-1.11,1.52-1.6,2.59a33.8,33.8,0,0,1-3.46,5.56,31.79,31.79,0,0,1-4.44,5.1,25.74,25.74,0,0,1-6,4.2,40.29,40.29,0,0,1-6.3,2.8c-.49.16-.86,0-.94-.25s.28-.41.61-.53a22.43,22.43,0,0,0,5-2.47,41.67,41.67,0,0,0,5-3.95A26.7,26.7,0,0,0,398.51,19a30.27,30.27,0,0,0,2.8-4.9,16.44,16.44,0,0,0,1.07-3.33,1.29,1.29,0,0,0-.12-1,3.36,3.36,0,0,0-.91-.08h-3.54c-.58,0-1.44,0-2,0-.37.78-.86,1.6-1.31,2.35a20.35,20.35,0,0,1-4.24,4.85,17,17,0,0,1-5.06,3.05c-.33.12-.74.12-.87-.13s.25-.53.54-.7A19.27,19.27,0,0,0,389.13,16a24.61,24.61,0,0,0,3.41-4.41,19.21,19.21,0,0,0,1.77-3.74,4.55,4.55,0,0,0,.37-2.18,2.27,2.27,0,0,0-.82-1.2c-.37-.33-.62-.9-.33-1.19s1-.16,1.77.08a5.88,5.88,0,0,1,2,1.15c.45.5.33,1.24,0,2.19-.09.33-.37.82-.66,1.48.29,0,.7.12,1.07.16a16.8,16.8,0,0,0,2.84,0,4.74,4.74,0,0,0,2.22-.78,2,2,0,0,1,2,0A5.77,5.77,0,0,1,406.54,8.87Z"/><path class="cls-1" d="M442.83,20.19a11.39,11.39,0,0,1-.39,4.11,6.57,6.57,0,0,1-2.88,3.75,13.9,13.9,0,0,1-4.92,1.79,13.12,13.12,0,0,1-4.79,0c-.3,0-.45-.15-.42-.3s.18-.27.42-.24a14.14,14.14,0,0,0,1.57.09,14.66,14.66,0,0,0,3.58-.51,13,13,0,0,0,3.63-1.75,6.78,6.78,0,0,0,2.56-4.23,10.59,10.59,0,0,0-.38-4.92,6.21,6.21,0,0,0-2.62-3.69,8.4,8.4,0,0,0-5.19-1.1c-.24,0-.5.09-.77.12.06.59.06,1.54.09,2.29a19.61,19.61,0,0,1-.45,4.08A13.23,13.23,0,0,1,429.79,25c-1.14,1.49-2.51,2.5-3.91,2.5a3.27,3.27,0,0,1-3-2.26,6.39,6.39,0,0,1-.39-4.44,9,9,0,0,1,2-4.14,12.87,12.87,0,0,1,3.82-3.13,12.21,12.21,0,0,1,5.63-1.31,9.43,9.43,0,0,1,4.73,1.25,8.83,8.83,0,0,1,3.13,3.13,7.9,7.9,0,0,1,1.07,3.64m-11.5-6.65a12.11,12.11,0,0,0-3.75,1.73A9.89,9.89,0,0,0,424,19.65a7.06,7.06,0,0,0-.24,4.53c.42,1,1.43,1.22,2.62.83a5.33,5.33,0,0,0,3-2.44,11.55,11.55,0,0,0,1.73-4.8,21.89,21.89,0,0,0,.17-4.23"/><path class="cls-2" d="M442.83,20.19a11.39,11.39,0,0,1-.39,4.11,6.57,6.57,0,0,1-2.88,3.75,13.9,13.9,0,0,1-4.92,1.79,13.12,13.12,0,0,1-4.79,0c-.3,0-.45-.15-.42-.3s.18-.27.42-.24a14.14,14.14,0,0,0,1.57.09,14.66,14.66,0,0,0,3.58-.51,13,13,0,0,0,3.63-1.75,6.78,6.78,0,0,0,2.56-4.23,10.59,10.59,0,0,0-.38-4.92,6.21,6.21,0,0,0-2.62-3.69,8.4,8.4,0,0,0-5.19-1.1c-.24,0-.5.09-.77.12.06.59.06,1.54.09,2.29a19.61,19.61,0,0,1-.45,4.08A13.23,13.23,0,0,1,429.79,25c-1.14,1.49-2.51,2.5-3.91,2.5a3.27,3.27,0,0,1-3-2.26,6.39,6.39,0,0,1-.39-4.44,9,9,0,0,1,2-4.14,12.87,12.87,0,0,1,3.82-3.13,12.21,12.21,0,0,1,5.63-1.31,9.43,9.43,0,0,1,4.73,1.25,8.83,8.83,0,0,1,3.13,3.13A7.9,7.9,0,0,1,442.83,20.19Zm-11.5-6.65a12.11,12.11,0,0,0-3.75,1.73A9.89,9.89,0,0,0,424,19.65a7.06,7.06,0,0,0-.24,4.53c.42,1,1.43,1.22,2.62.83a5.33,5.33,0,0,0,3-2.44,11.55,11.55,0,0,0,1.73-4.8A21.89,21.89,0,0,0,431.33,13.54Z"/><path class="cls-1" d="M463.16,11.67h-4.61a41.53,41.53,0,0,1-.58,6.5l0,.2h4.77l1.36-1.64c1.44,1.23,2.18,2,2.18,2.34,0,.17-.12.25-.33.41l-.86.54c-.08,6-.62,9.92-1.56,11.73a3.94,3.94,0,0,1-3.83,2,1.84,1.84,0,0,0-1.07-1.56,27.2,27.2,0,0,0-3-.78v-1a26,26,0,0,0,4.12.37,2.22,2.22,0,0,0,2.43-1.85,44.26,44.26,0,0,0,.86-9.63h-5.14c-.17,1.07-.33,1.93-.41,2.71l-2.23-.49a84.18,84.18,0,0,0,1.4-11.85A22.73,22.73,0,0,1,459,10.76h4.2V4h-8.4l-.29-1h8.36l1.4-1.77c1.44,1.16,2.18,1.94,2.18,2.35a.55.55,0,0,1-.25.41l-.9.54v9h-2.1Zm12.63,3.78V10.39c2.31.08,3.46.37,3.46.86,0,.29-.45.62-1.4.91v3.29h4.9L484,13.93c1.4,1.11,2.14,1.81,2.14,2.14,0,.12-.12.25-.29.45l-.78.54v7.36H483V22.9h-5.14v6.75h.49c.54,0,1.44-.12,2.76-.25s2.26-.2,3-.24a16.34,16.34,0,0,0-3.16-3.63l.53-.7c4.36,2.56,6.5,4.94,6.5,7.21a1.14,1.14,0,0,1-1.31,1.27c-.5,0-1-.45-1.2-1.44a9,9,0,0,0-.74-1.77c-5.39.91-10.78,1.61-16.21,2.1-.25.86-.46,1.28-.74,1.28-.5,0-1-1.11-1.4-3.3,4.24-.12,7.36-.24,9.42-.41V22.9h-5.06v2h-2V14.3a18.85,18.85,0,0,1,2.39,1.15Zm7.62-6.34c-4.66.5-9.43,1.32-14.45,1.73-.25.83-.49,1.24-.78,1.24s-.78-1-1.11-3.13c1.85,0,3.41,0,4.65-.08a45.55,45.55,0,0,0,2.8-8.19c2.22.7,3.37,1.27,3.37,1.68s-.49.54-1.56.62A45.72,45.72,0,0,1,473,8.83c2.23-.09,5.19-.29,8.81-.62l1.27-.08a19.27,19.27,0,0,0-3.49-3.67l.53-.65Q487,7.44,487,10.64c0,.86-.41,1.27-1.2,1.27-.57,0-1-.45-1.31-1.31a8,8,0,0,0-.79-1.53Zm-7.62,7.25h-5.06V22h5.06ZM477.85,22H483V16.36h-5.14Z"/><path class="cls-2" d="M463.16,11.67h-4.61a41.53,41.53,0,0,1-.58,6.5l0,.2h4.77l1.36-1.64c1.44,1.23,2.18,2,2.18,2.34,0,.17-.12.25-.33.41l-.86.54c-.08,6-.62,9.92-1.56,11.73a3.94,3.94,0,0,1-3.83,2,1.84,1.84,0,0,0-1.07-1.56,27.2,27.2,0,0,0-3-.78v-1a26,26,0,0,0,4.12.37,2.22,2.22,0,0,0,2.43-1.85,44.26,44.26,0,0,0,.86-9.63h-5.14c-.17,1.07-.33,1.93-.41,2.71l-2.23-.49a84.18,84.18,0,0,0,1.4-11.85A22.73,22.73,0,0,1,459,10.76h4.2V4h-8.4l-.29-1h8.36l1.4-1.77c1.44,1.16,2.18,1.94,2.18,2.35a.55.55,0,0,1-.25.41l-.9.54v9h-2.1Zm12.63,3.78V10.39c2.31.08,3.46.37,3.46.86,0,.29-.45.62-1.4.91v3.29h4.9L484,13.93c1.4,1.11,2.14,1.81,2.14,2.14,0,.12-.12.25-.29.45l-.78.54v7.36H483V22.9h-5.14v6.75h.49c.54,0,1.44-.12,2.76-.25s2.26-.2,3-.24a16.34,16.34,0,0,0-3.16-3.63l.53-.7c4.36,2.56,6.5,4.94,6.5,7.21a1.14,1.14,0,0,1-1.31,1.27c-.5,0-1-.45-1.2-1.44a9,9,0,0,0-.74-1.77c-5.39.91-10.78,1.61-16.21,2.1-.25.86-.46,1.28-.74,1.28-.5,0-1-1.11-1.4-3.3,4.24-.12,7.36-.24,9.42-.41V22.9h-5.06v2h-2V14.3a18.85,18.85,0,0,1,2.39,1.15Zm7.62-6.34c-4.66.5-9.43,1.32-14.45,1.73-.25.83-.49,1.24-.78,1.24s-.78-1-1.11-3.13c1.85,0,3.41,0,4.65-.08a45.55,45.55,0,0,0,2.8-8.19c2.22.7,3.37,1.27,3.37,1.68s-.49.54-1.56.62A45.72,45.72,0,0,1,473,8.83c2.23-.09,5.19-.29,8.81-.62l1.27-.08a19.27,19.27,0,0,0-3.49-3.67l.53-.65Q487,7.44,487,10.64c0,.86-.41,1.27-1.2,1.27-.57,0-1-.45-1.31-1.31a8,8,0,0,0-.79-1.53Zm-7.62,7.25h-5.06V22h5.06ZM477.85,22H483V16.36h-5.14Z"/><path class="cls-1" d="M528.46,24.38c-.16.78-1.27.66-2.55.54s-2.3-1.28-3.74-2.51a17,17,0,0,1-3.58,5.22A15.07,15.07,0,0,1,512,31.46c-.9.25-1.32,0-1.4-.21s.5-.61,1-.78a15.24,15.24,0,0,0,5.43-3.41,13.47,13.47,0,0,0,3.25-5.23,2.68,2.68,0,0,0,.21-.66,24.86,24.86,0,0,0-5.06-2.63,12,12,0,0,0-5.93-.66,4.78,4.78,0,0,0-.74.08,6.31,6.31,0,0,0-.29.66,20.33,20.33,0,0,1-3.58,6c-1.52,1.6-3.91,2.34-5.14,1.19-1-1-.37-3.58.45-4.81a9.56,9.56,0,0,1,4.86-3.5,17.21,17.21,0,0,1,2.47-.7c1.15-2.26,2.3-4.65,3-6s2.1-4.07,2.31-4.69-.21-.78-.79-.5a35.75,35.75,0,0,1-4.23,2.06,3.38,3.38,0,0,1-2.72-.2c-.62-.33-1-1.11-.74-1.49.41-.69,1.48-.2,2.35-.16a10.42,10.42,0,0,0,3.29-1,30.43,30.43,0,0,0,3-1.44,2,2,0,0,1,1.89,0c.58.25.95.5,1.07,1.11a3.55,3.55,0,0,1-.82,2.23c-.62,1-2.14,3.29-3.17,5.22-.7,1.4-1.64,3-2.55,4.61,1.07-.08,2.1-.08,3-.08a15.32,15.32,0,0,1,6,1.23,20.74,20.74,0,0,1,2.47,1.2,9.77,9.77,0,0,0,.13-1.48,7,7,0,0,0-.46-2.64c-.2-.62-.61-1.31-.28-1.73s1.27-.2,1.93.13a2.57,2.57,0,0,1,1.32,2.38c0,.42,0,.83-.08,1.24a19.28,19.28,0,0,0,.94,2,11.44,11.44,0,0,0,2.64,3.42c.61.53,1.52,1.44,1.31,2.22M506.69,18.5A11.83,11.83,0,0,0,503.36,20c-1.81,1.23-2.63,2.76-1.77,3.21.53.25,1.6-.37,2.59-1.19a13.63,13.63,0,0,0,2.51-3.54m17.57,2.55a9.12,9.12,0,0,1-1-2.18A9.66,9.66,0,0,1,523,20a15.85,15.85,0,0,1,1.27,1"/><path class="cls-2" d="M528.46,24.38c-.16.78-1.27.66-2.55.54s-2.3-1.28-3.74-2.51a17,17,0,0,1-3.58,5.22A15.07,15.07,0,0,1,512,31.46c-.9.25-1.32,0-1.4-.21s.5-.61,1-.78a15.24,15.24,0,0,0,5.43-3.41,13.47,13.47,0,0,0,3.25-5.23,2.68,2.68,0,0,0,.21-.66,24.86,24.86,0,0,0-5.06-2.63,12,12,0,0,0-5.93-.66,4.78,4.78,0,0,0-.74.08,6.31,6.31,0,0,0-.29.66,20.33,20.33,0,0,1-3.58,6c-1.52,1.6-3.91,2.34-5.14,1.19-1-1-.37-3.58.45-4.81a9.56,9.56,0,0,1,4.86-3.5,17.21,17.21,0,0,1,2.47-.7c1.15-2.26,2.3-4.65,3-6s2.1-4.07,2.31-4.69-.21-.78-.79-.5a35.75,35.75,0,0,1-4.23,2.06,3.38,3.38,0,0,1-2.72-.2c-.62-.33-1-1.11-.74-1.49.41-.69,1.48-.2,2.35-.16a10.42,10.42,0,0,0,3.29-1,30.43,30.43,0,0,0,3-1.44,2,2,0,0,1,1.89,0c.58.25.95.5,1.07,1.11a3.55,3.55,0,0,1-.82,2.23c-.62,1-2.14,3.29-3.17,5.22-.7,1.4-1.64,3-2.55,4.61,1.07-.08,2.1-.08,3-.08a15.32,15.32,0,0,1,6,1.23,20.74,20.74,0,0,1,2.47,1.2,9.77,9.77,0,0,0,.13-1.48,7,7,0,0,0-.46-2.64c-.2-.62-.61-1.31-.28-1.73s1.27-.2,1.93.13a2.57,2.57,0,0,1,1.32,2.38c0,.42,0,.83-.08,1.24a19.28,19.28,0,0,0,.94,2,11.44,11.44,0,0,0,2.64,3.42C527.76,22.69,528.67,23.6,528.46,24.38ZM506.69,18.5A11.83,11.83,0,0,0,503.36,20c-1.81,1.23-2.63,2.76-1.77,3.21.53.25,1.6-.37,2.59-1.19A13.63,13.63,0,0,0,506.69,18.5Zm17.57,2.55a9.12,9.12,0,0,1-1-2.18A9.66,9.66,0,0,1,523,20,15.85,15.85,0,0,1,524.26,21.05Z"/></g></g></svg>